<svg width="236" height="234" viewBox="0 0 236 234" fill="none" xmlns="http://www.w3.org/2000/svg">
<path d="M42.5259 2.44356C48.1316 1.02952 53.6994 -0.687535 59.6081 0.284619C64.9612 0.0447372 70.1881 0.903263 75.3772 2.07742C93.2547 6.11754 109.251 14.1473 123.96 24.942C132.28 31.0527 140.373 37.4537 148.642 43.6275C159.462 51.7204 171.406 57.1493 184.864 59.0557C186.039 59.4598 187.263 59.4598 188.488 59.4219C189.599 59.4598 190.723 59.4345 191.67 60.1542C191.909 60.4824 191.935 60.8359 191.733 61.1894C188.21 62.7929 184.372 62.1616 180.723 62.4267C159.601 63.967 140.246 70.5449 122.356 81.7183C121.308 82.3748 120.26 83.0566 119.048 83.4227C118.682 83.5111 118.303 83.549 117.912 83.5237C115.993 83.2712 114.693 81.9203 113.241 80.8598C104.113 74.1305 95.5146 66.6815 85.7805 60.7854C73.5339 53.3617 60.1762 49.8645 45.9348 49.7635C33.1074 49.6625 20.2926 49.7635 7.46525 49.7256C5.78607 49.7256 4.04377 49.9781 2.45297 49.1196C1.98583 48.7534 1.7712 48.2484 1.6702 47.6929C1.64495 44.4356 3.362 41.658 4.22052 38.6531C4.87704 36.974 5.74819 35.4084 6.51834 33.7797C7.04861 32.8202 7.50312 31.8102 7.83138 30.7623C8.70253 28.4897 10.0661 26.5075 11.3539 24.4622C16.4671 18.8944 21.3405 13.0741 27.83 8.95825C32.413 6.05442 37.097 3.41571 42.5259 2.45618V2.44356Z" fill="#F16CC5"/>
<path d="M118.756 83.0186C135.383 71.8199 153.538 64.6865 173.512 62.2877C179.597 61.5555 185.67 61.0757 191.781 60.9116C202.045 60.4065 212.31 60.7727 222.561 60.7222C226.614 60.6969 230.68 60.4192 234.72 60.9368C235.654 61.9595 235.566 63.2346 235.566 64.4719C235.591 78.4987 235.667 92.5255 235.629 106.565C235.629 107.815 235.654 109.065 234.859 110.151C233.407 111.35 231.652 111.022 229.998 111.034C219.645 111.085 209.28 111.009 198.927 111.085C195.833 111.161 192.74 111.262 189.672 110.895C182.754 109.885 175.759 109.406 168.878 107.954C151.165 104.229 135.27 96.5656 120.586 86.2002C119.551 85.4679 118.074 84.824 118.756 83.0312V83.0186Z" fill="#6F22B1"/>
<path d="M118.757 83.0186C122.178 87.2228 127.052 89.4449 131.508 92.172C145.333 100.656 160.421 105.833 176.392 108.433C180.571 109.115 184.813 109.481 189.017 109.999C187.464 111.4 185.457 111.413 183.588 111.552C170.508 112.511 158.577 116.665 147.631 123.9C137.947 130.288 129.198 137.888 119.805 144.668C118.441 145.653 117.216 146.916 115.512 147.383C115.146 147.433 114.792 147.421 114.439 147.345C109.982 144.896 105.854 141.891 101.409 139.416C84.9207 130.212 67.2831 125.074 48.446 123.9C47.2214 123.824 45.6179 124.253 45.2266 122.334C51.5645 121.223 57.9529 120.503 64.1268 118.508C74.4291 115.201 83.33 109.481 91.8647 103.055C100.627 96.452 109.313 89.7479 118.024 83.0943C118.264 83.0691 118.504 83.0438 118.744 83.0186H118.757Z" fill="#7651E5"/>
<path d="M45.2261 122.334C48.4203 123.723 51.8796 123.155 55.1875 123.533C73.1155 125.579 89.7179 131.336 105.159 140.527C108.454 142.484 111.838 144.353 114.729 146.928C114.88 148.645 113.466 149.226 112.406 149.958C93.9348 162.432 73.7215 169.97 51.4125 171.75C47.9153 172.028 44.4307 172.318 40.9208 172.343C29.1161 172.343 17.3113 172.368 5.50662 172.343C0.519594 172.343 0.0145785 171.838 0.0145785 166.914C-0.0106722 153.519 0.00195315 140.136 0.0145785 126.74C0.0145785 125.389 -0.124301 124.001 0.519594 122.725C0.784727 122.296 1.16349 122.157 1.65588 122.309C16.1751 122.309 30.7069 122.334 45.2261 122.347V122.334Z" fill="#1133E2"/>
<path d="M41.9957 171.952C41.92 171.8 41.8316 171.636 41.7559 171.485C54.4444 170.992 66.9309 169.275 79.0512 165.286C91.9291 161.056 103.974 155.249 114.731 146.916C114.933 146.903 115.147 146.891 115.362 146.903C128.618 156.738 140.827 168.025 155.612 175.702C165.308 180.739 175.736 183.365 186.607 183.567C202.123 183.87 217.653 183.694 233.169 183.719C234.305 184.098 234.129 184.931 234.028 185.865C233.725 188.63 233.005 191.281 231.907 193.832C230.063 198.099 228.17 202.329 225.619 206.242C221.327 212.543 216.062 217.896 209.989 222.491C203.979 226.595 197.616 229.928 190.508 231.733C185.786 232.933 181.077 234.056 176.166 232.933C158.629 231.241 142.292 225.812 126.977 217.163C114.97 210.384 104.302 201.723 93.5073 193.264C80.4526 183.024 66.3627 175.159 49.5331 173.164C47.0333 172.861 44.2683 173.858 42.0084 171.965L41.9957 171.952Z" fill="#26A2FB"/>
</svg>
